<svg width="43" height="41" viewBox="0 0 43 41" fill="none" xmlns="http://www.w3.org/2000/svg">
<g filter="url(#filter0_d_8_1187)">
<path d="M14.157 36.9098C14.4867 37.1837 14.9018 37.3335 15.3303 37.3333L34.8333 37.3333C35.8058 37.3333 36.7384 36.947 37.4261 36.2594C38.1137 35.5717 38.5 34.6391 38.5 33.6666L38.5 20.4483C38.4997 19.5462 38.1668 18.676 37.5651 18.0039C36.9634 17.3318 36.135 16.9052 35.2385 16.8055L22 15.3333L22 4.33331C22 3.36085 21.6137 2.42822 20.9261 1.74059C20.2384 1.05295 19.3058 0.666643 18.3333 0.666643C17.3609 0.666643 16.4282 1.05295 15.7406 1.74059C15.053 2.42822 14.6667 3.36085 14.6667 4.33331L14.6667 26.3333L9.11166 24.1113C8.64758 23.9258 8.15049 23.837 7.65088 23.8505C7.15127 23.864 6.65968 23.9795 6.20629 24.1898C5.7529 24.4001 5.34726 24.7008 5.01426 25.0735C4.68127 25.4462 4.42795 25.883 4.26983 26.3571L4.06266 26.9805C3.94582 27.3302 3.9374 27.7071 4.03849 28.0618C4.13958 28.4164 4.34547 28.7322 4.62917 28.9678L14.157 36.9098Z" fill="#4E75FF"/>
</g>
<defs>
<filter id="filter0_d_8_1187" x="-0.0316162" y="0.666626" width="42.5316" height="44.6667" filterUnits="userSpaceOnUse" color-interpolation-filters="sRGB">
<feFlood flood-opacity="0" result="BackgroundImageFix"/>
<feColorMatrix in="SourceAlpha" type="matrix" values="0 0 0 0 0 0 0 0 0 0 0 0 0 0 0 0 0 0 127 0" result="hardAlpha"/>
<feOffset dy="4"/>
<feGaussianBlur stdDeviation="2"/>
<feComposite in2="hardAlpha" operator="out"/>
<feColorMatrix type="matrix" values="0 0 0 0 0 0 0 0 0 0 0 0 0 0 0 0 0 0 0.25 0"/>
<feBlend mode="normal" in2="BackgroundImageFix" result="effect1_dropShadow_8_1187"/>
<feBlend mode="normal" in="SourceGraphic" in2="effect1_dropShadow_8_1187" result="shape"/>
</filter>
</defs>
</svg>
